<svg width="42" height="35" viewBox="0 0 42 35" fill="none" xmlns="http://www.w3.org/2000/svg">
<path d="M39.7027 23.3268H42L38.9958 20.2048C34.6956 15.7279 28.7461 13.1949 22.5021 13.1949H21.7952H20.2637H19.4979C13.3128 13.1949 7.36325 15.7279 3.00421 20.2048L0 23.3268H2.29734C8.48247 23.3268 14.432 20.7938 18.791 16.317L21.0295 14.0196C19.7335 21.913 8.48247 34.4011 8.48247 34.4011H21.0884H33.6942C33.6942 34.4011 22.561 22.0898 21.1473 14.1963L23.209 16.3759C27.5091 20.7938 33.4586 23.3268 39.7027 23.3268Z" fill="#5A7A13"/>
<path d="M19.1445 8.60029L20.9706 6.7153L22.7967 8.60029C26.331 12.3114 31.2791 14.3731 36.4039 14.3731H38.2889L35.8149 11.7812C32.2805 8.07014 27.3324 6.00842 22.2076 6.00842H21.6185H20.3226H19.7335C14.6087 6.00842 9.71951 8.07014 6.12624 11.7812L3.65219 14.432H5.53718C10.662 14.432 15.6101 12.3114 19.1445 8.60029Z" fill="#84A637"/>
<path d="M19.4979 2.12062L20.9706 0.58906L22.4432 2.12062C25.3296 5.12482 29.3352 6.8331 33.5176 6.8331H35.0491L33.0463 4.71248C30.1599 1.70827 26.1543 0 21.972 0H21.5007H20.4404H19.9692C15.7868 0 11.7812 1.70827 8.89483 4.71248L6.89203 6.8331H8.42359C12.6059 6.8331 16.6115 5.12482 19.4979 2.12062Z" fill="#C2E96A"/>
</svg>
